<?xml version="1.0" encoding="utf-8"?>
<!-- Generator: Adobe Illustrator 19.2.1, SVG Export Plug-In . SVG Version: 6.00 Build 0)  -->
<svg version="1.1" id="Layer_1" xmlns="http://www.w3.org/2000/svg" xmlns:xlink="http://www.w3.org/1999/xlink" x="0px" y="0px"
	 viewBox="0 0 500 337.4" style="enable-background:new 0 0 500 337.4;" xml:space="preserve">
<style type="text/css">
	.st0{fill:#FFFFFF;}
</style>
<title>Untitled-1</title>
<path class="st0" d="M296.4,111.2l13.2,6.6c11.4-9.7,25.3-16,40.1-18.4L347,86C328,89.2,310.4,98,296.4,111.2z"/>
<path class="st0" d="M372.7,40.8c-7.2,0-14.4,0.6-21.5,1.8L279.5,6.8l0.1,0.2c-33.4-16.4-73.8-2.7-90.2,30.7
	c-9.6,19.4-9.2,42.3,1,61.4c-18.8-11-39.6-16.2-63-16.2h-0.1c-4.6,0-9.1,0.3-13.6,0.7C43.7,90.9-7,153.5,0.4,223.4
	c6.8,64.9,61.7,114.1,126.9,114l14.9-0.9c4.3-0.5,8.7-1.2,12.9-2.2c0.7-0.2,1.4-0.3,2.1-0.5c16.8-4.1,32.7-11.6,46.5-22l73.7-59.4
	c46.6,52.6,127,57.5,179.7,10.9s57.5-127,10.9-179.7C443.8,56.4,409.1,40.8,372.7,40.8z M140.7,322.9l-14,0.8
	C64,323.3,13.5,272.1,13.8,209.4c0.4-57.7,44-106,101.4-112.2c4-0.4,8.1-0.6,12.1-0.7c62.7,0,113.6,50.8,113.6,113.5
	C241,267.6,197.9,316.1,140.7,322.9L140.7,322.9z M242.3,264.9c20.6-43.3,15.1-94.4-14.1-132.4l110.2,52.4L242.3,264.9z
	 M372.7,281.6c-32.3,0-63-13.7-84.5-37.8l26.8-21.6c20.9,26.2,59,30.6,85.3,9.7s30.6-59,9.7-85.3s-59-30.6-85.3-9.7
	c-6.9,5.5-12.4,12.3-16.4,20.2l-68.2-33.6c-6.3-3.9-8.2-12.1-4.3-18.4c3.6-5.9,11.1-8,17.3-4.9l9.2,4.5l0,0l12.4,6
	c14.4-24.7,37.7-43.1,65.1-51.4l139,68c22.5,58.6-6.8,124.3-65.3,146.7C400.5,279.1,386.6,281.6,372.7,281.6z"/>
</svg>
