<?xml version="1.0" encoding="UTF-8"?>
<!DOCTYPE svg PUBLIC "-//W3C//DTD SVG 1.1//EN" "http://www.w3.org/Graphics/SVG/1.1/DTD/svg11.dtd">
<svg version="1.1" xmlns="http://www.w3.org/2000/svg" xmlns:xlink="http://www.w3.org/1999/xlink" x="0" y="0" width="430" height="240" viewBox="0, 0, 430, 240">
  <defs>
    <clipPath id="Clip_1">
      <path d="M43.712,98.714 L282.962,98.714 L282.962,198.148 L43.712,198.148 z M90.232,122.75 C95.701,122.75 99.575,124.151 101.852,126.95 C103.061,128.497 103.811,130.597 104.102,133.252 L123.922,133.252 C122.344,138.069 121.549,143.247 121.549,148.784 C121.549,149.262 121.564,149.729 121.574,150.201 C121.328,149.933 121.096,149.658 120.832,149.402 C116.728,145.491 110.564,142.57 102.342,140.639 C90.007,137.933 82.825,136.028 80.792,134.916 C78.757,133.855 77.741,132.142 77.741,129.773 C77.741,127.891 78.696,126.251 80.609,124.85 C82.522,123.452 85.728,122.75 90.232,122.75 z M161.814,124.127 C167.85,124.127 172.485,126.261 175.719,130.526 C178.953,134.792 180.571,140.879 180.571,148.784 C180.571,156.692 178.953,162.79 175.719,167.081 C172.485,171.372 167.85,173.517 161.814,173.517 C155.779,173.517 151.132,171.372 147.874,167.081 C144.615,162.79 142.985,156.692 142.985,148.784 C142.985,140.879 144.615,134.792 147.874,130.526 C151.132,126.261 155.779,124.127 161.814,124.127 z M107.48,109.714 L73.921,109.714 C70.793,110.979 68.047,112.676 65.701,114.82 C59.968,120.059 57.102,126.324 57.102,133.613 C57.102,139.793 58.936,144.525 62.605,147.808 C66.274,151.138 72.594,153.917 81.563,156.137 C94.024,159.082 101.222,161.158 103.157,162.363 C105.09,163.57 106.058,165.333 106.058,167.65 C106.058,170.065 104.856,171.876 102.455,173.082 C100.055,174.291 96.815,174.893 92.741,174.893 C85.803,174.893 81.05,173.517 78.479,170.764 C77.023,169.22 76.078,166.613 75.641,162.942 L54.712,162.942 C54.712,171.053 57.673,177.729 63.601,182.967 C65.475,184.624 67.675,186.016 70.199,187.148 L112.131,187.148 C114.42,186.116 116.439,184.872 118.171,183.402 C122.423,179.792 125.117,175.413 126.267,170.275 C127.698,173.177 129.457,175.915 131.542,178.489 C134.573,182.229 138.326,185.11 142.784,187.148 L180.988,187.148 C185.448,185.11 189.2,182.229 192.231,178.489 C196.5,173.22 199.392,167.26 200.927,160.613 C201.21,167.764 202.309,173.33 204.238,177.281 C206.403,181.778 209.668,185.059 214.01,187.148 L240.964,187.148 C243.158,186.016 245.408,184.421 247.713,182.351 C248.772,181.434 249.687,180.371 250.458,179.166 C251.226,177.96 251.71,177.235 251.901,176.993 L251.901,187.148 L271.962,187.148 L271.962,109.714 L251.033,109.714 L251.033,152.152 C251.033,157.222 250.358,161.302 249.014,164.392 C246.421,170.09 241.615,172.937 234.602,172.937 C229.126,172.937 225.452,170.933 223.578,166.926 C222.521,164.658 221.993,161.277 221.993,156.787 L221.993,109.714 L200.846,109.714 L200.846,136.74 C199.291,130.288 196.42,124.44 192.231,119.191 C188.848,114.955 184.571,111.8 179.408,109.714 L144.363,109.714 C139.202,111.8 134.925,114.955 131.542,119.191 C128.52,122.978 126.19,127.078 124.541,131.489 C123.369,122.765 119.868,116.556 114.036,112.865 C112.046,111.605 109.847,110.57 107.48,109.714 z"/>
    </clipPath>
    <filter id="Shadow_2">
      <feGaussianBlur in="SourceAlpha" stdDeviation="5"/>
      <feOffset dx="0" dy="0" result="offsetblur"/>
      <feFlood flood-color="#000000"/>
      <feComposite in2="offsetblur" operator="in"/>
    </filter>
    <clipPath id="Clip_3">
      <path d="M264.851,70.542 L433.422,70.542 L433.422,198.148 L264.851,198.148 z M384.33,125.356 C388.288,125.356 391.766,126.613 394.76,129.123 C399.635,133.276 402.074,140.179 402.074,149.835 C402.074,156.74 400.554,162.363 397.51,166.709 C394.469,171.053 390.028,173.226 384.186,173.226 C378.344,173.226 373.985,171.041 371.115,166.672 C368.241,162.304 366.805,156.474 366.805,149.182 C366.805,142.424 368.216,136.762 371.042,132.201 C373.867,127.639 378.295,125.356 384.33,125.356 z M422.422,81.542 L401.495,81.542 L401.495,119.201 C399.175,115.485 396.159,112.576 392.441,110.474 C388.723,108.375 384.476,107.326 379.695,107.326 C369.316,107.326 361.022,111.188 354.818,118.912 C351.18,123.441 348.618,128.971 347.114,135.477 L347.114,134.99 C347.114,125.092 344.528,118.006 339.361,113.733 C337.34,112.062 335.084,110.731 332.612,109.712 L307.402,109.712 C305.954,110.375 304.59,111.161 303.34,112.105 C300.984,113.892 298.484,116.811 295.839,120.866 L295.839,109.712 L275.851,109.712 L275.851,187.148 L296.492,187.148 L296.492,145.418 C296.492,140.541 297.163,136.535 298.506,133.396 C301.092,127.458 305.861,124.488 312.811,124.488 C318.466,124.488 322.298,126.515 324.312,130.57 C325.416,132.792 325.967,135.98 325.967,140.13 L325.967,187.148 L347.114,187.148 L347.114,164.012 C348.639,169.88 351.249,175.019 354.965,179.42 C357.764,182.733 360.854,185.307 364.23,187.148 L392.74,187.148 C396.325,185.01 399.535,181.707 402.365,177.208 L402.365,187.148 L422.422,187.148 L422.422,81.542 z"/>
    </clipPath>
    <filter id="Shadow_4">
      <feGaussianBlur in="SourceAlpha" stdDeviation="5"/>
      <feOffset dx="0" dy="0" result="offsetblur"/>
      <feFlood flood-color="#000000"/>
      <feComposite in2="offsetblur" operator="in"/>
    </filter>
    <clipPath id="Clip_5">
      <path d="M-3.422,6.343 L238.583,6.343 L238.583,117.035 L-3.422,117.035 z M134.189,53.538 C138.328,53.538 141.796,54.744 144.593,57.155 C147.39,59.568 148.949,63.101 149.266,67.758 L119.043,67.758 C119.679,63.389 121.236,59.927 123.716,57.372 C126.196,54.817 129.687,53.538 134.189,53.538 z M195.205,54.585 C198.569,54.585 201.523,55.653 204.068,57.785 C208.213,61.316 210.286,67.182 210.286,75.391 C210.286,81.261 208.993,86.04 206.407,89.734 C203.822,93.428 200.045,95.273 195.081,95.273 C190.115,95.273 186.411,93.417 183.97,89.703 C181.528,85.99 180.309,81.034 180.309,74.836 C180.309,69.093 181.508,64.28 183.909,60.401 C186.309,56.525 190.074,54.585 195.205,54.585 z M162.312,79.33 C162.51,82.528 163.004,85.524 163.803,88.317 L148.652,88.317 C147.609,90.287 146.404,91.826 145.042,92.936 C142.544,94.987 139.297,96.011 135.301,96.011 C131.532,96.011 128.308,95.172 125.627,93.489 C121.222,90.779 118.884,86.061 118.612,79.33 L162.312,79.33 z M227.583,17.343 L209.794,17.343 L209.794,49.353 C207.824,46.192 205.259,43.72 202.098,41.935 C198.937,40.151 195.327,39.258 191.263,39.258 C182.441,39.258 175.393,42.541 170.12,49.107 C167.933,51.829 166.207,54.978 164.927,58.539 C164.04,56.25 162.918,54.118 161.556,52.142 C158.507,47.623 154.641,44.314 149.961,42.216 C145.282,40.122 140.021,39.073 134.181,39.073 C124.348,39.073 116.35,42.173 110.188,48.377 C107.33,51.252 105.145,54.717 103.612,58.757 C103.517,57.608 103.391,56.606 103.236,55.754 C102.58,52.349 101.307,49.475 99.421,47.137 C97.081,44.265 94.473,42.253 91.603,41.104 C88.73,39.955 85.815,39.38 82.862,39.38 C78.43,39.38 74.407,40.303 70.797,42.151 C67.39,43.997 64.538,46.889 62.239,50.829 C60.926,47.548 58.997,44.859 56.454,42.767 C53.293,40.51 49.148,39.38 44.019,39.38 C38.602,39.38 34.189,40.693 30.784,43.32 C28.855,44.798 26.804,47.282 24.629,50.768 L24.629,40.98 L7.578,40.98 L7.578,106.035 L25.367,106.035 L25.367,67.575 C25.367,63.922 25.838,61.172 26.783,59.324 C28.505,56.083 31.872,54.461 36.878,54.461 C41.188,54.461 44.08,56.083 45.558,59.324 C46.377,61.131 46.79,64.024 46.79,68.004 L46.79,106.035 L64.455,106.035 L64.455,68.004 C64.455,65.009 64.926,62.444 65.872,60.31 C67.717,56.289 71.063,54.276 75.905,54.276 C80.091,54.276 82.963,55.838 84.524,58.956 C85.344,60.598 85.754,62.69 85.754,65.233 L85.754,106.035 L103.734,106.035 L103.777,91.787 C105.478,95.96 107.94,99.363 111.182,101.977 C113.146,103.559 115.199,104.907 117.335,106.035 L152.956,106.035 C155.608,104.557 157.983,102.701 160.06,100.445 C162.518,97.835 164.282,95.251 165.368,92.692 C166.62,95.556 168.244,98.172 170.242,100.536 C172.123,102.764 174.16,104.59 176.345,106.035 L203.96,106.035 C206.367,104.248 208.56,101.797 210.532,98.66 L210.532,106.035 L227.583,106.035 L227.583,17.343 z"/>
    </clipPath>
    <filter id="Shadow_6">
      <feGaussianBlur in="SourceAlpha" stdDeviation="5"/>
      <feOffset dx="0" dy="0" result="offsetblur"/>
      <feFlood flood-color="#000000"/>
      <feComposite in2="offsetblur" operator="in"/>
    </filter>
    <clipPath id="Clip_7">
      <path d="M221.299,5.666 L261.09,5.666 L261.09,43.855 L221.299,43.855 z M250.09,16.666 L232.299,16.666 L232.299,32.855 L250.09,32.855 L250.09,16.666 z"/>
    </clipPath>
    <filter id="Shadow_8">
      <feGaussianBlur in="SourceAlpha" stdDeviation="5"/>
      <feOffset dx="0" dy="0" result="offsetblur"/>
      <feFlood flood-color="#000000"/>
      <feComposite in2="offsetblur" operator="in"/>
    </filter>
    <clipPath id="Clip_9">
      <path d="M221.299,29.856 L261.09,29.856 L261.09,117.033 L221.299,117.033 z M250.09,40.856 L232.299,40.856 L232.299,106.033 L250.09,106.033 L250.09,40.856 z"/>
    </clipPath>
    <filter id="Shadow_10">
      <feGaussianBlur in="SourceAlpha" stdDeviation="5"/>
      <feOffset dx="0" dy="0" result="offsetblur"/>
      <feFlood flood-color="#000000"/>
      <feComposite in2="offsetblur" operator="in"/>
    </filter>
    <clipPath id="Clip_11">
      <path d="M240.557,28.256 L325.653,28.256 L325.653,117.033 L240.557,117.033 z M293.414,75.328 L293.414,81.853 C293.29,87.724 291.613,91.765 288.383,93.98 C285.153,96.196 281.622,97.304 277.788,97.304 C275.371,97.304 273.32,96.637 271.631,95.304 C269.944,93.97 269.1,91.805 269.1,88.809 C269.1,85.445 270.483,82.963 273.245,81.361 C274.877,80.418 277.565,79.617 281.309,78.96 L285.301,78.222 C287.3,77.852 288.869,77.452 290.013,77.021 C291.158,76.59 292.29,76.027 293.414,75.328 z M282.647,39.256 C271.31,39.256 263.313,42.212 258.656,48.121 C255.729,51.896 254.082,56.72 253.712,62.586 L270.639,62.586 C271.054,60.001 271.887,57.95 273.135,56.431 C274.883,54.38 277.857,53.354 282.057,53.353 C285.801,53.354 288.641,53.876 290.574,54.923 C292.51,55.97 293.477,57.868 293.477,60.617 C293.477,62.875 292.215,64.536 289.694,65.603 C288.29,66.219 285.952,66.731 282.687,67.142 L276.672,67.882 C269.85,68.742 264.683,70.179 261.168,72.189 C254.761,75.883 251.557,81.853 251.557,90.102 C251.557,96.465 253.55,101.378 257.532,104.846 C258.018,105.268 258.52,105.663 259.036,106.033 L286.741,106.033 C289.426,104.337 291.847,102.364 293.969,100.075 C294.093,101.593 294.256,102.947 294.461,104.136 C294.567,104.748 294.717,105.38 294.908,106.033 L314.653,106.033 L314.653,105.368 C313.502,104.836 312.642,104.159 312.067,103.337 C311.492,102.516 311.144,100.957 311.02,98.658 C310.937,95.623 310.898,93.037 310.898,90.903 L310.898,60.125 C310.898,52.04 308.034,46.542 302.306,43.627 C296.575,40.714 290.022,39.256 282.647,39.256 z"/>
    </clipPath>
    <filter id="Shadow_12">
      <feGaussianBlur in="SourceAlpha" stdDeviation="5"/>
      <feOffset dx="0" dy="0" result="offsetblur"/>
      <feFlood flood-color="#000000"/>
      <feComposite in2="offsetblur" operator="in"/>
    </filter>
  </defs>
  <g id="Ebene_1">
    <g>
      <path d="M107.48,109.714 C109.847,110.57 112.046,111.605 114.036,112.865 C119.868,116.556 123.369,122.765 124.541,131.489 C126.19,127.078 128.52,122.978 131.542,119.191 C134.925,114.955 139.202,111.8 144.363,109.714 L179.408,109.714 C184.571,111.8 188.848,114.955 192.231,119.191 C196.42,124.44 199.291,130.288 200.846,136.74 L200.846,109.714 L221.993,109.714 L221.993,156.787 C221.993,161.277 222.521,164.658 223.578,166.926 C225.452,170.933 229.126,172.937 234.602,172.937 C241.615,172.937 246.421,170.09 249.014,164.392 C250.358,161.302 251.033,157.222 251.033,152.152 L251.033,109.714 L271.962,109.714 L271.962,187.148 L251.901,187.148 L251.901,176.993 C251.71,177.235 251.226,177.96 250.458,179.166 C249.687,180.371 248.772,181.434 247.713,182.351 C245.408,184.421 243.158,186.016 240.964,187.148 L214.01,187.148 C209.668,185.059 206.403,181.778 204.238,177.281 C202.309,173.33 201.21,167.764 200.927,160.613 C199.392,167.26 196.5,173.22 192.231,178.489 C189.2,182.229 185.448,185.11 180.988,187.148 L142.784,187.148 C138.326,185.11 134.573,182.229 131.542,178.489 C129.457,175.915 127.698,173.177 126.267,170.275 C125.117,175.413 122.423,179.792 118.171,183.402 C116.439,184.872 114.42,186.116 112.131,187.148 L70.199,187.148 C67.675,186.016 65.475,184.624 63.601,182.967 C57.673,177.729 54.712,171.053 54.712,162.942 L75.641,162.942 C76.078,166.613 77.023,169.22 78.479,170.764 C81.05,173.517 85.803,174.893 92.741,174.893 C96.815,174.893 100.055,174.291 102.455,173.082 C104.856,171.876 106.058,170.065 106.058,167.65 C106.058,165.333 105.09,163.57 103.157,162.363 C101.222,161.158 94.024,159.082 81.563,156.137 C72.594,153.917 66.274,151.138 62.605,147.808 C58.936,144.525 57.102,139.793 57.102,133.613 C57.102,126.324 59.968,120.059 65.701,114.82 C68.047,112.676 70.793,110.979 73.921,109.714 L107.48,109.714 z M161.814,124.127 C155.779,124.127 151.132,126.261 147.874,130.526 C144.615,134.792 142.985,140.879 142.985,148.784 C142.985,156.692 144.615,162.79 147.874,167.081 C151.132,171.372 155.779,173.517 161.814,173.517 C167.85,173.517 172.485,171.372 175.719,167.081 C178.953,162.79 180.571,156.692 180.571,148.784 C180.571,140.879 178.953,134.792 175.719,130.526 C172.485,126.261 167.85,124.127 161.814,124.127 z M90.232,122.75 C85.728,122.75 82.522,123.452 80.609,124.85 C78.696,126.251 77.741,127.891 77.741,129.773 C77.741,132.142 78.757,133.855 80.792,134.916 C82.825,136.028 90.007,137.933 102.342,140.639 C110.564,142.57 116.728,145.491 120.832,149.402 C121.096,149.658 121.328,149.933 121.574,150.201 C121.564,149.729 121.549,149.262 121.549,148.784 C121.549,143.247 122.344,138.069 123.922,133.252 L104.102,133.252 C103.811,130.597 103.061,128.497 101.852,126.95 C99.575,124.151 95.701,122.75 90.232,122.75 z" clip-path="url(#Clip_1)" filter="url(#Shadow_2)" fill="rgba(0,0,0,0.75)"/>
      <path d="M175.719,167.081 C172.485,171.372 167.85,173.517 161.814,173.517 C155.779,173.517 151.132,171.372 147.874,167.081 C144.615,162.79 142.985,156.692 142.985,148.784 C142.985,140.879 144.615,134.792 147.874,130.526 C151.132,126.261 155.779,124.127 161.814,124.127 C167.85,124.127 172.485,126.261 175.719,130.526 C178.953,134.792 180.571,140.879 180.571,148.784 C180.571,156.692 178.953,162.79 175.719,167.081 M121.574,150.201 C121.328,149.933 121.096,149.658 120.832,149.402 C116.728,145.491 110.564,142.57 102.342,140.639 C90.007,137.933 82.825,136.028 80.792,134.916 C78.757,133.855 77.741,132.142 77.741,129.774 C77.741,127.891 78.696,126.251 80.609,124.85 C82.522,123.452 85.728,122.75 90.232,122.75 C95.701,122.75 99.575,124.151 101.852,126.95 C103.061,128.497 103.811,130.597 104.102,133.252 L123.922,133.252 C122.344,138.069 121.549,143.247 121.549,148.784 C121.549,149.262 121.564,149.729 121.574,150.201 M271.962,187.149 L271.962,109.714 L251.033,109.714 L251.033,152.152 C251.033,157.222 250.358,161.302 249.014,164.392 C246.421,170.09 241.615,172.937 234.602,172.937 C229.126,172.937 225.452,170.933 223.578,166.927 C222.521,164.658 221.993,161.277 221.993,156.787 L221.993,109.714 L200.846,109.714 L200.846,136.74 C199.291,130.288 196.42,124.44 192.231,119.191 C188.848,114.955 184.571,111.8 179.408,109.714 L144.363,109.714 C139.202,111.8 134.925,114.955 131.542,119.191 C128.52,122.978 126.19,127.078 124.542,131.489 C123.369,122.765 119.868,116.556 114.036,112.865 C112.046,111.605 109.847,110.57 107.48,109.714 L73.921,109.714 C70.793,110.979 68.047,112.676 65.701,114.82 C59.968,120.059 57.102,126.324 57.102,133.613 C57.102,139.793 58.936,144.525 62.605,147.808 C66.274,151.138 72.594,153.917 81.563,156.137 C94.024,159.082 101.222,161.158 103.157,162.363 C105.09,163.57 106.058,165.333 106.058,167.65 C106.058,170.065 104.856,171.876 102.455,173.082 C100.055,174.291 96.815,174.893 92.741,174.893 C85.803,174.893 81.05,173.517 78.479,170.764 C77.023,169.22 76.078,166.613 75.641,162.942 L54.712,162.942 C54.712,171.053 57.673,177.729 63.601,182.967 C65.475,184.624 67.675,186.016 70.199,187.149 L112.131,187.149 C114.42,186.116 116.439,184.872 118.171,183.402 C122.423,179.792 125.117,175.413 126.267,170.275 C127.698,173.177 129.457,175.915 131.542,178.489 C134.573,182.229 138.326,185.11 142.784,187.149 L180.988,187.149 C185.448,185.11 189.2,182.229 192.231,178.489 C196.5,173.22 199.392,167.26 200.927,160.613 C201.21,167.764 202.309,173.33 204.238,177.281 C206.403,181.778 209.668,185.059 214.01,187.149 L240.965,187.149 C243.158,186.016 245.408,184.421 247.713,182.351 C248.772,181.434 249.687,180.371 250.458,179.166 C251.226,177.96 251.71,177.235 251.901,176.993 L251.901,187.149 z" fill="#FFFFFF"/>
    </g>
    <g>
      <path d="M422.422,81.542 L422.422,187.148 L402.365,187.148 L402.365,177.208 C399.535,181.707 396.325,185.01 392.74,187.148 L364.23,187.148 C360.854,185.307 357.764,182.733 354.965,179.42 C351.249,175.019 348.639,169.88 347.114,164.012 L347.114,187.148 L325.967,187.148 L325.967,140.13 C325.967,135.98 325.416,132.792 324.312,130.57 C322.298,126.515 318.466,124.488 312.811,124.488 C305.861,124.488 301.092,127.458 298.506,133.396 C297.163,136.535 296.492,140.541 296.492,145.418 L296.492,187.148 L275.851,187.148 L275.851,109.712 L295.839,109.712 L295.839,120.866 C298.484,116.811 300.984,113.892 303.34,112.105 C304.59,111.161 305.954,110.375 307.402,109.712 L332.612,109.712 C335.084,110.731 337.34,112.062 339.361,113.733 C344.528,118.006 347.114,125.092 347.114,134.99 L347.114,135.477 C348.618,128.971 351.18,123.441 354.818,118.912 C361.022,111.188 369.316,107.326 379.695,107.326 C384.476,107.326 388.723,108.375 392.441,110.474 C396.159,112.576 399.175,115.485 401.495,119.201 L401.495,81.542 L422.422,81.542 z M384.33,125.356 C378.295,125.356 373.867,127.639 371.042,132.201 C368.216,136.762 366.805,142.424 366.805,149.182 C366.805,156.474 368.241,162.304 371.115,166.672 C373.985,171.041 378.344,173.226 384.186,173.226 C390.028,173.226 394.469,171.053 397.51,166.709 C400.554,162.363 402.074,156.74 402.074,149.835 C402.074,140.179 399.635,133.276 394.76,129.123 C391.766,126.613 388.288,125.356 384.33,125.356 z" clip-path="url(#Clip_3)" filter="url(#Shadow_4)" fill="rgba(0,0,0,0.75)"/>
      <path d="M397.51,166.709 C394.469,171.053 390.028,173.226 384.186,173.226 C378.344,173.226 373.985,171.041 371.115,166.672 C368.241,162.304 366.805,156.474 366.805,149.182 C366.805,142.424 368.216,136.762 371.042,132.201 C373.867,127.639 378.295,125.356 384.33,125.356 C388.288,125.356 391.766,126.613 394.76,129.123 C399.635,133.276 402.074,140.179 402.074,149.835 C402.074,156.74 400.554,162.363 397.51,166.709 M401.495,119.201 C399.175,115.485 396.159,112.576 392.441,110.474 C388.723,108.375 384.476,107.326 379.695,107.326 C369.316,107.326 361.022,111.188 354.818,118.912 C351.18,123.441 348.618,128.971 347.114,135.478 L347.114,134.99 C347.114,125.092 344.528,118.006 339.361,113.733 C337.34,112.062 335.084,110.731 332.612,109.712 L307.402,109.712 C305.954,110.375 304.59,111.161 303.34,112.105 C300.984,113.892 298.484,116.811 295.839,120.866 L295.839,109.712 L275.851,109.712 L275.851,187.149 L296.492,187.149 L296.492,145.418 C296.492,140.541 297.163,136.535 298.506,133.396 C301.092,127.458 305.861,124.488 312.811,124.488 C318.466,124.488 322.298,126.515 324.312,130.57 C325.416,132.792 325.967,135.98 325.967,140.131 L325.967,187.149 L347.114,187.149 L347.114,164.012 C348.639,169.88 351.249,175.019 354.965,179.42 C357.764,182.733 360.854,185.307 364.23,187.149 L392.74,187.149 C396.325,185.01 399.535,181.707 402.365,177.208 L402.365,187.149 L422.422,187.149 L422.422,81.542 L401.495,81.542 z" fill="#FFFFFF"/>
    </g>
    <path d="M9.672,191.432 L13.926,191.432 L13.926,204.275 L29.898,204.275 L29.898,191.432 L34.15,191.432 L34.15,222.509 L29.898,222.509 L29.898,207.976 L13.926,207.976 L13.926,222.509 L9.672,222.509 z" fill="#FFFFFF"/>
    <path d="M52.703,209.773 L47.918,196.044 L42.948,209.773 z M45.723,191.432 L50.475,191.432 L61.755,222.509 L57.143,222.509 L53.899,213.201 L41.706,213.201 L38.336,222.509 L34.02,222.509 z" fill="#FFFFFF"/>
    <path d="M61.503,191.432 L67.535,191.432 L76.471,217.709 L85.344,191.432 L91.332,191.432 L91.332,222.509 L87.313,222.509 L87.313,204.167 C87.313,203.533 87.328,202.484 87.356,201.016 C87.383,199.548 87.399,197.975 87.399,196.298 L78.524,222.509 L74.354,222.509 L65.396,196.298 L65.396,197.249 C65.396,198.012 65.416,199.172 65.459,200.73 C65.502,202.289 65.522,203.433 65.522,204.167 L65.522,222.509 L61.503,222.509 z" fill="#FFFFFF"/>
    <path d="M107.068,218.913 C109.674,218.913 111.532,218.165 112.644,216.671 C113.341,215.725 113.689,214.583 113.689,213.243 C113.689,210.987 112.672,209.448 110.635,208.631 C109.554,208.194 108.123,207.976 106.342,207.976 L97.908,207.976 L97.908,218.913 z M105.647,204.569 C107.442,204.569 108.838,204.323 109.837,203.83 C111.404,203.053 112.186,201.656 112.186,199.64 C112.186,197.609 111.353,196.241 109.686,195.536 C108.745,195.141 107.348,194.944 105.497,194.944 L97.908,194.944 L97.908,204.569 z M93.782,191.432 L107.218,191.432 C110.881,191.432 113.485,192.517 115.034,194.688 C115.943,195.973 116.398,197.455 116.398,199.132 C116.398,201.093 115.839,202.701 114.725,203.956 C114.148,204.618 113.317,205.226 112.229,205.775 C113.823,206.381 115.014,207.066 115.805,207.828 C117.201,209.18 117.898,211.05 117.898,213.432 C117.898,215.437 117.266,217.25 116.006,218.87 C114.118,221.297 111.115,222.509 107.001,222.509 L93.782,222.509 z" fill="#FFFFFF"/>
    <path d="M123.003,191.432 L123.003,210.641 C123.003,212.898 123.43,214.774 124.281,216.268 C125.548,218.524 127.68,219.653 130.679,219.653 C134.277,219.653 136.72,218.433 138.015,215.994 C138.71,214.668 139.06,212.883 139.06,210.641 L139.06,191.432 L143.312,191.432 L143.312,208.885 C143.312,212.707 142.796,215.648 141.761,217.709 C139.865,221.46 136.285,223.334 131.02,223.334 C125.755,223.334 122.182,221.46 120.299,217.709 C119.267,215.648 118.75,212.707 118.75,208.885 L118.75,191.432 z" fill="#FFFFFF"/>
    <path d="M159.678,205.669 C161.599,205.669 163.118,205.275 164.236,204.486 C165.354,203.695 165.913,202.27 165.913,200.211 C165.913,197.997 165.13,196.489 163.567,195.684 C162.731,195.261 161.613,195.05 160.213,195.05 L150.216,195.05 L150.216,205.669 z M146.006,191.432 L160.131,191.432 C162.459,191.432 164.376,191.777 165.886,192.468 C168.752,193.794 170.186,196.243 170.186,199.809 C170.186,201.673 169.801,203.195 169.033,204.38 C168.265,205.563 167.189,206.517 165.807,207.234 C167.02,207.728 167.933,208.377 168.547,209.182 C169.159,209.985 169.502,211.29 169.574,213.095 L169.72,217.264 C169.763,218.449 169.862,219.329 170.017,219.907 C170.271,220.895 170.722,221.529 171.371,221.811 L171.371,222.509 L166.209,222.509 C166.067,222.242 165.955,221.897 165.87,221.474 C165.785,221.049 165.715,220.232 165.659,219.018 L165.404,213.835 C165.309,211.806 164.575,210.444 163.205,209.753 C162.424,209.373 161.199,209.182 159.526,209.182 L150.216,209.182 L150.216,222.509 L146.006,222.509 z" fill="#FFFFFF"/>
    <path d="M192.839,192.322 C195.882,193.942 197.744,196.784 198.427,200.847 L194.258,200.847 C193.762,198.575 192.733,196.922 191.172,195.885 C189.611,194.849 187.643,194.33 185.267,194.33 C182.449,194.33 180.077,195.41 178.15,197.567 C176.223,199.725 175.261,202.941 175.261,207.214 C175.261,210.91 176.054,213.916 177.646,216.238 C179.235,218.559 181.825,219.716 185.419,219.716 C188.169,219.716 190.446,218.903 192.251,217.274 C194.054,215.644 194.977,213.012 195.02,209.373 L185.289,209.373 L185.289,205.881 L198.933,205.881 L198.933,222.511 L196.225,222.511 L195.211,218.512 C193.808,220.075 192.568,221.163 191.485,221.769 C189.668,222.814 187.358,223.334 184.555,223.334 C180.935,223.334 177.819,222.143 175.21,219.76 C172.367,216.77 170.944,212.666 170.944,207.448 C170.944,202.242 172.334,198.103 175.115,195.03 C177.756,192.094 181.175,190.629 185.374,190.629 C188.251,190.629 190.739,191.192 192.839,192.322" fill="#FFFFFF"/>
    <path d="M202.7,217.898 L207.121,217.898 L207.121,222.509 L202.7,222.509 z" fill="#FFFFFF"/>
    <path d="M222.05,218.913 C223.442,218.913 224.587,218.764 225.483,218.47 C227.085,217.919 228.394,216.862 229.414,215.296 C230.227,214.04 230.813,212.432 231.171,210.471 C231.38,209.302 231.482,208.214 231.482,207.214 C231.482,203.362 230.734,200.374 229.238,198.243 C227.741,196.115 225.331,195.05 222.009,195.05 L214.705,195.05 L214.705,218.913 z M210.453,191.432 L222.875,191.432 C227.093,191.432 230.364,192.948 232.687,195.981 C234.761,198.715 235.797,202.222 235.797,206.494 C235.797,209.796 235.185,212.778 233.962,215.443 C231.805,220.155 228.095,222.509 222.834,222.509 L210.453,222.509 z" fill="#FFFFFF"/>
    <path d="M237.448,191.432 L260.002,191.432 L260.002,195.239 L241.554,195.239 L241.554,204.675 L258.605,204.675 L258.605,208.271 L241.554,208.271 L241.554,218.809 L260.319,218.809 L260.319,222.509 L237.448,222.509 z" fill="#FFFFFF"/>
    <g>
      <path d="M227.583,17.343 L227.583,106.035 L210.532,106.035 L210.532,98.66 C208.56,101.797 206.367,104.248 203.96,106.035 L176.345,106.035 C174.16,104.59 172.123,102.764 170.242,100.536 C168.244,98.172 166.62,95.556 165.368,92.692 C164.282,95.251 162.518,97.835 160.06,100.445 C157.983,102.701 155.608,104.557 152.956,106.035 L117.335,106.035 C115.199,104.907 113.146,103.559 111.182,101.977 C107.94,99.363 105.478,95.96 103.777,91.787 L103.734,106.035 L85.754,106.035 L85.754,65.233 C85.754,62.69 85.344,60.598 84.524,58.956 C82.963,55.838 80.091,54.276 75.905,54.276 C71.063,54.276 67.717,56.289 65.872,60.31 C64.926,62.444 64.455,65.009 64.455,68.004 L64.455,106.035 L46.79,106.035 L46.79,68.004 C46.79,64.024 46.377,61.131 45.558,59.324 C44.08,56.083 41.188,54.461 36.878,54.461 C31.872,54.461 28.505,56.083 26.783,59.324 C25.838,61.172 25.367,63.922 25.367,67.575 L25.367,106.035 L7.578,106.035 L7.578,40.98 L24.629,40.98 L24.629,50.768 C26.804,47.282 28.855,44.798 30.784,43.32 C34.189,40.693 38.602,39.38 44.019,39.38 C49.148,39.38 53.293,40.51 56.454,42.767 C58.997,44.859 60.926,47.548 62.239,50.829 C64.538,46.889 67.39,43.997 70.797,42.151 C74.407,40.303 78.43,39.38 82.862,39.38 C85.815,39.38 88.73,39.955 91.603,41.104 C94.473,42.253 97.081,44.265 99.421,47.137 C101.307,49.475 102.58,52.349 103.236,55.754 C103.391,56.606 103.517,57.608 103.612,58.757 C105.145,54.717 107.33,51.252 110.188,48.377 C116.35,42.173 124.348,39.073 134.181,39.073 C140.021,39.073 145.282,40.122 149.961,42.216 C154.641,44.314 158.507,47.623 161.556,52.142 C162.918,54.118 164.04,56.25 164.927,58.539 C166.207,54.978 167.933,51.829 170.12,49.107 C175.393,42.541 182.441,39.258 191.263,39.258 C195.327,39.258 198.937,40.151 202.098,41.935 C205.259,43.72 207.824,46.192 209.794,49.353 L209.794,17.343 L227.583,17.343 z M162.312,79.33 L118.612,79.33 C118.884,86.061 121.222,90.779 125.627,93.489 C128.308,95.172 131.532,96.011 135.301,96.011 C139.297,96.011 142.544,94.987 145.042,92.936 C146.404,91.826 147.609,90.287 148.652,88.317 L163.803,88.317 C163.004,85.524 162.51,82.528 162.312,79.33 z M195.205,54.585 C190.074,54.585 186.309,56.525 183.909,60.401 C181.508,64.28 180.309,69.093 180.309,74.836 C180.309,81.034 181.528,85.99 183.97,89.703 C186.411,93.417 190.115,95.273 195.081,95.273 C200.045,95.273 203.822,93.428 206.407,89.734 C208.993,86.04 210.286,81.261 210.286,75.391 C210.286,67.182 208.213,61.316 204.068,57.785 C201.523,55.653 198.569,54.585 195.205,54.585 z M134.189,53.538 C129.687,53.538 126.196,54.817 123.716,57.372 C121.236,59.927 119.679,63.389 119.043,67.758 L149.266,67.758 C148.949,63.101 147.39,59.568 144.593,57.155 C141.796,54.744 138.328,53.538 134.189,53.538 z" clip-path="url(#Clip_5)" filter="url(#Shadow_6)" fill="rgba(0,0,0,0.75)"/>
      <path d="M206.407,89.734 C203.822,93.428 200.045,95.273 195.081,95.273 C190.115,95.273 186.411,93.417 183.97,89.704 C181.528,85.99 180.309,81.034 180.309,74.836 C180.309,69.093 181.508,64.28 183.909,60.401 C186.309,56.525 190.074,54.585 195.205,54.585 C198.569,54.585 201.523,55.653 204.068,57.785 C208.213,61.316 210.286,67.182 210.286,75.391 C210.286,81.261 208.993,86.04 206.407,89.734 M148.652,88.317 C147.609,90.287 146.404,91.826 145.042,92.936 C142.544,94.987 139.297,96.011 135.301,96.011 C131.532,96.011 128.308,95.172 125.627,93.489 C121.222,90.779 118.884,86.061 118.612,79.33 L162.313,79.33 C162.51,82.528 163.004,85.524 163.803,88.317 z M123.716,57.372 C126.196,54.817 129.687,53.538 134.189,53.538 C138.328,53.538 141.796,54.744 144.593,57.155 C147.39,59.568 148.949,63.101 149.266,67.758 L119.043,67.758 C119.679,63.389 121.236,59.927 123.716,57.372 M227.583,106.035 L227.583,17.343 L209.794,17.343 L209.794,49.353 C207.824,46.192 205.259,43.72 202.098,41.935 C198.937,40.151 195.327,39.258 191.263,39.258 C182.441,39.258 175.393,42.541 170.12,49.107 C167.933,51.829 166.207,54.978 164.927,58.539 C164.04,56.25 162.918,54.118 161.556,52.142 C158.507,47.623 154.641,44.314 149.961,42.216 C145.282,40.122 140.021,39.073 134.181,39.073 C124.348,39.073 116.35,42.173 110.188,48.377 C107.33,51.252 105.145,54.717 103.612,58.757 C103.517,57.608 103.391,56.606 103.236,55.754 C102.58,52.349 101.307,49.475 99.421,47.137 C97.081,44.265 94.473,42.253 91.603,41.104 C88.73,39.955 85.815,39.38 82.862,39.38 C78.43,39.38 74.407,40.303 70.797,42.151 C67.39,43.997 64.538,46.889 62.239,50.829 C60.926,47.548 58.997,44.859 56.454,42.767 C53.293,40.51 49.148,39.38 44.019,39.38 C38.602,39.38 34.189,40.693 30.784,43.32 C28.855,44.798 26.804,47.282 24.629,50.768 L24.629,40.98 L7.578,40.98 L7.578,106.035 L25.367,106.035 L25.367,67.575 C25.367,63.922 25.838,61.172 26.783,59.324 C28.505,56.083 31.872,54.461 36.878,54.461 C41.188,54.461 44.08,56.083 45.558,59.324 C46.377,61.131 46.79,64.024 46.79,68.004 L46.79,106.035 L64.455,106.035 L64.455,68.004 C64.455,65.009 64.926,62.444 65.872,60.31 C67.717,56.289 71.063,54.276 75.905,54.276 C80.091,54.276 82.963,55.838 84.524,58.956 C85.344,60.598 85.754,62.69 85.754,65.233 L85.754,106.035 L103.734,106.035 L103.777,91.787 C105.478,95.96 107.94,99.363 111.182,101.977 C113.146,103.559 115.199,104.907 117.335,106.035 L152.956,106.035 C155.608,104.557 157.983,102.701 160.06,100.445 C162.518,97.835 164.282,95.251 165.368,92.692 C166.62,95.556 168.244,98.172 170.242,100.536 C172.123,102.764 174.16,104.59 176.345,106.035 L203.96,106.035 C206.367,104.248 208.56,101.797 210.532,98.66 L210.532,106.035 z" fill="#FFFFFF"/>
    </g>
    <g>
      <path d="M250.09,16.666 L250.09,32.855 L232.299,32.855 L232.299,16.666 L250.09,16.666 z" clip-path="url(#Clip_7)" filter="url(#Shadow_8)" fill="rgba(0,0,0,0.75)"/>
      <path d="M250.09,16.666 L232.299,16.666 L232.299,32.855 L250.09,32.855 z" fill="#FFFFFF"/>
    </g>
    <g>
      <path d="M250.09,40.856 L250.09,106.033 L232.299,106.033 L232.299,40.856 L250.09,40.856 z" clip-path="url(#Clip_9)" filter="url(#Shadow_10)" fill="rgba(0,0,0,0.75)"/>
      <path d="M232.299,106.033 L250.09,106.033 L250.09,40.856 L232.299,40.856 z" fill="#FFFFFF"/>
    </g>
    <g>
      <path d="M282.647,39.256 C290.022,39.256 296.575,40.714 302.306,43.627 C308.034,46.542 310.898,52.04 310.898,60.125 L310.898,90.903 C310.898,93.037 310.937,95.623 311.02,98.658 C311.144,100.957 311.492,102.516 312.067,103.337 C312.642,104.159 313.502,104.836 314.653,105.368 L314.653,106.033 L294.908,106.033 C294.717,105.38 294.567,104.748 294.461,104.136 C294.256,102.947 294.093,101.593 293.969,100.075 C291.847,102.364 289.426,104.337 286.741,106.033 L259.036,106.033 C258.52,105.663 258.018,105.268 257.532,104.846 C253.55,101.378 251.557,96.465 251.557,90.102 C251.557,81.853 254.761,75.883 261.168,72.189 C264.683,70.179 269.85,68.742 276.672,67.882 L282.687,67.142 C285.952,66.731 288.29,66.219 289.694,65.603 C292.215,64.536 293.477,62.875 293.477,60.617 C293.477,57.868 292.51,55.97 290.574,54.923 C288.641,53.876 285.801,53.354 282.057,53.353 C277.857,53.354 274.883,54.38 273.135,56.431 C271.887,57.95 271.054,60.001 270.639,62.586 L253.712,62.586 C254.082,56.72 255.729,51.896 258.656,48.121 C263.313,42.212 271.31,39.256 282.647,39.256 z M293.414,75.328 C292.29,76.027 291.158,76.59 290.013,77.021 C288.869,77.452 287.3,77.852 285.301,78.222 L281.309,78.96 C277.565,79.617 274.877,80.418 273.245,81.361 C270.483,82.963 269.1,85.445 269.1,88.809 C269.1,91.805 269.944,93.97 271.631,95.304 C273.32,96.637 275.371,97.304 277.788,97.304 C281.622,97.304 285.153,96.196 288.383,93.98 C291.613,91.765 293.29,87.724 293.414,81.853 L293.414,75.328 z" clip-path="url(#Clip_11)" filter="url(#Shadow_12)" fill="rgba(0,0,0,0.75)"/>
      <path d="M293.414,81.853 C293.29,87.724 291.613,91.765 288.383,93.98 C285.153,96.196 281.622,97.304 277.788,97.304 C275.371,97.304 273.32,96.637 271.631,95.304 C269.944,93.97 269.1,91.805 269.1,88.809 C269.1,85.445 270.483,82.963 273.245,81.361 C274.877,80.418 277.565,79.617 281.309,78.96 L285.301,78.222 C287.3,77.852 288.869,77.452 290.013,77.021 C291.158,76.59 292.29,76.027 293.414,75.328 z M312.067,103.337 C311.492,102.516 311.144,100.957 311.02,98.658 C310.937,95.623 310.898,93.037 310.898,90.903 L310.898,60.125 C310.898,52.04 308.034,46.542 302.306,43.627 C296.575,40.714 290.022,39.256 282.647,39.256 C271.31,39.256 263.313,42.212 258.656,48.121 C255.729,51.896 254.082,56.72 253.712,62.586 L270.639,62.586 C271.054,60.001 271.887,57.95 273.135,56.431 C274.883,54.38 277.857,53.354 282.057,53.354 C285.801,53.354 288.641,53.876 290.574,54.923 C292.51,55.97 293.477,57.868 293.477,60.617 C293.477,62.875 292.215,64.536 289.694,65.603 C288.29,66.219 285.952,66.731 282.687,67.142 L276.672,67.882 C269.85,68.742 264.683,70.179 261.168,72.189 C254.761,75.883 251.557,81.853 251.557,90.102 C251.557,96.465 253.55,101.378 257.532,104.846 C258.018,105.268 258.52,105.663 259.036,106.033 L286.741,106.033 C289.426,104.337 291.847,102.364 293.969,100.075 C294.093,101.593 294.256,102.947 294.461,104.136 C294.567,104.748 294.717,105.38 294.908,106.033 L314.653,106.033 L314.653,105.368 C313.502,104.836 312.642,104.159 312.067,103.337" fill="#FFFFFF"/>
    </g>
  </g>
</svg>
